HIERARCHY
ROOT Hips
{
	OFFSET 0.000000 0.000000 0.000000
	CHANNELS 6 Xposition Yposition Zposition Xrotation Yrotation Zrotation
	JOINT Chest
	{
		OFFSET 0.000000 0.009282 11.569106
		CHANNELS 3 Xrotation Yrotation Zrotation
		JOINT Chest2
		{
			OFFSET 0.000000 -0.016863 9.269641
			CHANNELS 3 Xrotation Yrotation Zrotation
			JOINT Chest3
			{
				OFFSET 0.000000 0.000000 8.374491
				CHANNELS 3 Xrotation Yrotation Zrotation
				JOINT Chest4
				{
					OFFSET 0.000000 0.000000 8.374493
					CHANNELS 3 Xrotation Yrotation Zrotation
					JOINT Neck
					{
						OFFSET 0.000000 -0.000001 12.152554
						CHANNELS 3 Xrotation Yrotation Zrotation
						JOINT Head
						{
							OFFSET 0.000000 -0.040100 7.802319
							CHANNELS 3 Xrotation Yrotation Zrotation
							End Site
							{
								OFFSET 0.000000 -0.020946 14.853096
							}
						}
					}
					JOINT RightCollar
					{
						OFFSET -2.894404 0.000000 6.791374
						CHANNELS 3 Xrotation Yrotation Zrotation
						JOINT RightShoulder
						{
							OFFSET -13.574684 0.000000 0.000000
							CHANNELS 3 Xrotation Yrotation Zrotation
							JOINT RightElbow
							{
								OFFSET -23.923903 0.000000 0.000000
								CHANNELS 3 Xrotation Yrotation Zrotation
								JOINT RightWrist
								{
									OFFSET -19.846718 -0.012765 0.000000
									CHANNELS 3 Xrotation Yrotation Zrotation
									End Site
									{
										OFFSET -14.973145 0.000000 0.000000
									}
								}
							}
						}
					}
					JOINT LeftCollar
					{
						OFFSET 2.894404 0.000000 6.791374
						CHANNELS 3 Xrotation Yrotation Zrotation
						JOINT LeftShoulder
						{
							OFFSET 13.574684 0.000000 0.000000
							CHANNELS 3 Xrotation Yrotation Zrotation
							JOINT LeftElbow
							{
								OFFSET 23.923903 0.000000 0.000000
								CHANNELS 3 Xrotation Yrotation Zrotation
								JOINT LeftWrist
								{
									OFFSET 19.846718 -0.012765 0.000000
									CHANNELS 3 Xrotation Yrotation Zrotation
									End Site
									{
										OFFSET 14.973145 0.000000 0.000000
									}
								}
							}
						}
					}
				}
			}
		}
	}
	JOINT RightHip
	{
		OFFSET -9.469263 -0.004642 0.045487
		CHANNELS 3 Xrotation Yrotation Zrotation
		JOINT RightKnee
		{
			OFFSET 0.000000 -0.002666 -40.478676
			CHANNELS 3 Xrotation Yrotation Zrotation
			JOINT RightAnkle
			{
				OFFSET 0.000000 -0.049110 -35.224068
				CHANNELS 3 Xrotation Yrotation Zrotation
				JOINT RightToe
				{
					OFFSET 0.000000 -12.539530 -6.151390
					CHANNELS 3 Xrotation Yrotation Zrotation
					End Site
					{
						OFFSET 0.000000 -5.044995 -1.291870
					}
				}
			}
		}
	}
	JOINT LeftHip
	{
		OFFSET 9.469263 -0.004642 0.045487
		CHANNELS 3 Xrotation Yrotation Zrotation
		JOINT LeftKnee
		{
			OFFSET 0.000000 -0.002666 -40.478676
			CHANNELS 3 Xrotation Yrotation Zrotation
			JOINT LeftAnkle
			{
				OFFSET 0.000000 -0.049110 -35.224068
				CHANNELS 3 Xrotation Yrotation Zrotation
				JOINT LeftToe
				{
					OFFSET 0.000000 -12.539530 -6.151390
					CHANNELS 3 Xrotation Yrotation Zrotation
					End Site
					{
						OFFSET 0.000000 -5.044995 -1.291870
					}
				}
			}
		}
	}
}
MOTION
Frames: 12
Frame Time: 0.016667
-10.471005 -4.230962 82.943909 4.199418 5.565351 -121.473302 3.889842 -0.309118 0.183026 1.729742 -0.126368 0.152306 1.729742 -0.126368 0.152319 1.297275 -0.095208 0.113879 20.770016 1.030759 -0.605525 2.392664 2.065069 -0.802864 -2.655458 -5.228764 2.876304 20.638074 -67.676895 58.433238 34.433723 -72.845265 84.052766 -21.203137 -6.804432 -22.825947 2.178336 8.286893 -11.772120 6.642738 54.294523 -56.598120 2.060285 3.192927 -9.388812 29.940537 8.643730 8.309969 8.255707 -0.405500 2.502870 3.332269 0.663109 -1.005003 -4.389308 -1.220830 5.800686 0.097031 0.034384 -0.064012 11.778920 0.435234 3.829652 0.859515 -0.469336 8.295233 -5.646914 0.028481 -0.887457 -0.115139 -0.126433 0.054738 
-10.469577 -4.222874 82.945656 4.142496 5.573916 -121.157720 3.852868 -0.303145 0.214257 1.712605 -0.123155 0.162203 1.712606 -0.123155 0.162195 1.284421 -0.092821 0.121304 20.810763 0.974752 -0.617729 2.468607 1.965915 -0.842352 -2.595090 -5.145215 2.880804 20.468801 -67.313522 59.349194 33.042843 -72.018683 83.040299 -19.578105 -9.927942 -23.815645 2.273721 8.378703 -11.797232 6.337266 54.935597 -56.441453 -0.444960 3.709848 -9.571333 28.360175 9.573337 10.062827 8.300173 -0.393045 2.425638 3.279174 0.631770 -1.158315 -4.398749 -1.195883 5.742285 0.090875 0.031949 -0.064973 11.735456 0.420268 3.792274 0.823302 -0.482196 8.163194 -5.584399 0.079203 -1.003447 -0.109189 -0.134019 0.056641 
-10.471101 -4.211857 82.945717 4.086337 5.583150 -120.828464 3.819162 -0.298013 0.254488 1.696848 -0.121295 0.176337 1.696848 -0.121295 0.176329 1.272601 -0.091462 0.131907 20.852052 0.903078 -0.633737 2.545524 1.839193 -0.893352 -2.460964 -5.065415 2.916465 20.077618 -67.031490 60.065749 32.262132 -71.194443 82.543464 -18.025726 -13.178947 -24.597693 2.382486 8.468412 -11.843125 6.038718 55.608214 -56.290451 -2.858947 4.188797 -9.684139 26.742827 10.244310 11.627352 8.353305 -0.385011 2.331214 3.219975 0.601636 -1.311712 -4.411603 -1.167321 5.636048 0.087061 0.027792 -0.065222 11.694212 0.403831 3.747354 0.788654 -0.498002 8.017228 -5.529312 0.127027 -1.108950 -0.099252 -0.136588 0.056898 
-10.472373 -4.198871 82.944748 4.030046 5.585339 -120.488908 3.811129 -0.297026 0.297720 1.692838 -0.122228 0.191781 1.692837 -0.122228 0.191784 1.269590 -0.092203 0.143504 20.868284 0.823628 -0.651134 2.575890 1.698826 -0.948790 -2.389883 -4.966274 2.935298 19.634758 -66.793902 60.691244 32.435786 -70.282059 83.028217 -16.155846 -15.974872 -25.344797 2.385460 8.580423 -11.886890 5.732886 56.419350 -56.033069 -5.353363 4.649658 -9.741422 24.864254 10.747841 12.977271 8.404662 -0.375515 2.229393 3.157860 0.564424 -1.459710 -4.424948 -1.135492 5.577186 0.082843 0.022778 -0.063440 11.641614 0.387260 3.681211 0.764826 -0.524647 7.857595 -5.485049 0.173086 -1.187566 -0.084784 -0.133665 0.055058 
-10.473384 -4.186317 82.944099 3.971025 5.583530 -120.143301 3.793417 -0.302513 0.343544 1.685126 -0.126429 0.208247 1.685126 -0.126429 0.208243 1.263800 -0.095397 0.155842 20.886572 0.746769 -0.669588 2.610013 1.563481 -1.005416 -2.300876 -4.868392 2.952622 19.209043 -66.619971 61.250705 33.021222 -68.578965 83.927712 -14.308242 -18.111800 -26.057062 2.402344 8.684699 -11.896343 5.432981 57.400992 -55.727957 -8.146361 5.196604 -9.725157 22.601637 11.083146 14.251799 8.443982 -0.367458 2.121387 3.109531 0.520531 -1.595532 -4.444565 -1.098058 5.491696 0.078760 0.020744 -0.063988 11.579049 0.366258 3.595678 0.750871 -0.543077 7.698856 -5.445106 0.212537 -1.257277 -0.072042 -0.129786 0.054813 
-10.471936 -4.172021 82.944572 3.909349 5.582765 -119.795275 3.770293 -0.312612 0.392449 1.675500 -0.131918 0.225284 1.675502 -0.131918 0.225286 1.256578 -0.099557 0.168607 20.906157 0.674335 -0.687763 2.646457 1.436125 -1.060186 -2.169274 -4.771561 2.950331 18.734316 -66.525858 61.776978 33.860834 -66.534751 85.004095 -12.309950 -19.887841 -26.559851 2.439563 8.793286 -11.886997 5.110530 58.402489 -55.352331 -11.140549 5.895947 -9.653150 20.163914 11.189243 15.518997 8.475411 -0.351058 2.009371 3.075642 0.463878 -1.723878 -4.469066 -1.054674 5.393301 0.072593 0.020045 -0.064018 11.513792 0.345454 3.507975 0.739241 -0.560211 7.549289 -5.401743 0.253053 -1.337492 -0.063140 -0.125837 0.055534 
-10.469931 -4.155713 82.945610 3.849891 5.589943 -119.447277 3.753746 -0.321785 0.437056 1.668652 -0.136260 0.240292 1.668652 -0.136260 0.240293 1.251435 -0.102853 0.179850 20.926684 0.603094 -0.698098 2.684486 1.308630 -1.100227 -2.117859 -4.674903 2.883392 18.478838 -66.492493 62.435162 34.845989 -64.399852 86.180062 -10.428092 -21.393184 -27.071919 2.441387 8.919553 -11.875688 4.843923 59.345909 -54.900005 -14.088203 6.580973 -9.563365 17.738023 11.264666 16.585617 8.511376 -0.334889 1.903559 3.051007 0.407649 -1.843741 -4.498144 -1.006795 5.301018 0.065377 0.017749 -0.063403 11.454791 0.326094 3.424165 0.732689 -0.577253 7.425672 -5.359399 0.298619 -1.435832 -0.056805 -0.123473 0.056224 
-10.471051 -4.136531 82.945824 3.793368 5.606517 -119.096533 3.733349 -0.330718 0.469879 1.659303 -0.140332 0.250232 1.659303 -0.140332 0.250233 1.244419 -0.105929 0.187298 20.959554 0.534127 -0.696525 2.745196 1.181684 -1.117866 -2.030553 -4.568265 2.813174 18.401914 -66.476483 63.186845 35.957917 -62.221097 87.521771 -8.748560 -22.737254 -27.525056 2.470120 9.057275 -11.856111 4.685044 60.221723 -54.486267 -16.838219 7.161566 -9.468624 15.360838 11.327511 17.336897 8.558891 -0.327014 1.802161 3.028867 0.361622 -1.972311 -4.533320 -0.957514 5.168099 0.060263 0.013718 -0.063150 11.408673 0.310123 3.354441 0.725160 -0.599866 7.293860 -5.319838 0.348435 -1.548619 -0.050176 -0.120900 0.057182 
-10.472504 -4.113137 82.944420 3.734077 5.624872 -118.740858 3.721698 -0.339364 0.500774 1.653574 -0.144250 0.259775 1.653574 -0.144250 0.259784 1.240119 -0.108891 0.194445 20.988710 0.461447 -0.691572 2.798933 1.046980 -1.130326 -1.937518 -4.452424 2.731461 18.471475 -66.475144 64.001960 37.060367 -59.942150 88.934554 -7.348274 -23.845428 -28.008545 2.480850 9.188641 -11.836813 4.618145 61.115194 -54.112911 -19.314701 7.665589 -9.391521 12.937359 11.042059 17.639360 8.610621 -0.314626 1.678087 3.006821 0.316295 -2.086027 -4.574768 -0.904649 5.077119 0.057268 0.005641 -0.062179 11.361934 0.296254 3.299356 0.722936 -0.624756 7.132999 -5.287069 0.396519 -1.648613 -0.041683 -0.115619 0.057506 
-10.475119 -4.088737 82.941902 3.678679 5.647497 -118.388284 3.722213 -0.347710 0.538193 1.653173 -0.148918 0.272009 1.653173 -0.148918 0.272013 1.239812 -0.112425 0.203611 21.008429 0.388707 -0.687832 2.835137 0.912608 -1.144900 -1.824840 -4.340065 2.652031 18.549701 -66.465643 64.779071 38.151511 -57.496232 90.421015 -5.994373 -24.585066 -28.464783 2.484623 9.292665 -11.786132 4.631867 62.068156 -53.766061 -21.602063 8.199103 -9.330954 10.419075 10.168656 17.411086 8.670837 -0.299315 1.539269 2.988316 0.267783 -2.183038 -4.623487 -0.849709 4.985790 0.055354 -0.002848 -0.061928 11.321373 0.283491 3.243754 0.723257 -0.655148 6.951769 -5.260618 0.441870 -1.732446 -0.030473 -0.107289 0.057006 
-10.481609 -4.066902 82.939423 3.622117 5.673373 -118.029070 3.728713 -0.358828 0.573339 1.655537 -0.154232 0.283504 1.655537 -0.154232 0.283500 1.241582 -0.116443 0.212213 21.016876 0.319847 -0.682919 2.850366 0.785092 -1.156096 -1.750638 -4.252050 2.580059 18.604107 -66.440426 65.433602 39.087615 -54.610197 91.830698 -4.557834 -24.974464 -28.838554 2.502934 9.388541 -11.707657 4.754288 63.007867 -53.487461 -23.663528 8.796408 -9.280572 7.719990 8.585210 16.834755 8.723143 -0.289588 1.408723 2.981829 0.217758 -2.286960 -4.675282 -0.786062 4.862869 0.055040 -0.010453 -0.062765 11.279195 0.276227 3.152718 0.734419 -0.687814 6.773031 -5.241031 0.479628 -1.802561 -0.020406 -0.097019 0.056941 
-10.486120 -4.044196 82.937164 3.568757 5.701527 -117.667384 3.747032 -0.372584 0.612897 1.663516 -0.161132 0.296820 1.663515 -0.161132 0.296824 1.247558 -0.121657 0.222181 21.010770 0.251021 -0.681873 2.838582 0.658896 -1.174282 -1.652889 -4.166707 2.537155 18.555759 -66.406589 65.939855 39.799792 -51.343860 93.108490 -3.041085 -25.223376 -29.114081 2.520668 9.501499 -11.648794 4.948008 63.877329 -53.253960 -25.362883 9.381351 -9.271499 5.010545 6.675389 16.140488 8.781902 -0.274591 1.282990 2.977045 0.164295 -2.402705 -4.729152 -0.726270 4.759316 0.052452 -0.017717 -0.060660 11.234485 0.267962 3.039701 0.757047 -0.722121 6.606374 -5.228002 0.513723 -1.849314 -0.009866 -0.085311 0.056008 
